<?xml version="1.0" standalone="no"?><svg xmlns="http://www.w3.org/2000/svg" viewBox="0 0 1440 320"><path fill="#00cba9" fill-opacity="1" d="M0,160L30,176C60,192,120,224,180,218.7C240,213,300,171,360,160C420,149,480,171,540,160C600,149,660,107,720,117.3C780,128,840,192,900,208C960,224,1020,192,1080,165.3C1140,139,1200,117,1260,106.7C1320,96,1380,96,1410,96L1440,96L1440,320L1410,320C1380,320,1320,320,1260,320C1200,320,1140,320,1080,320C1020,320,960,320,900,320C840,320,780,320,720,320C660,320,600,320,540,320C480,320,420,320,360,320C300,320,240,320,180,320C120,320,60,320,30,320L0,320Z"></path></svg>